<?xml version="1.0" encoding="utf-8"?>
<!-- Generator: Adobe Illustrator 19.0.0, SVG Export Plug-In . SVG Version: 6.00 Build 0)  -->
<svg version="1.1" id="Layer_1" xmlns="http://www.w3.org/2000/svg" xmlns:xlink="http://www.w3.org/1999/xlink" x="0px" y="0px"
	 viewBox="1222 -206.8 3443.5 1413.8" style="enable-background:new 1222 -206.8 3443.5 1413.8;" xml:space="preserve">
<style type="text/css">
	.st0{fill:#52CCCA;}
	.st1{fill:#FF6669;}
</style>
<path class="st0" d="M3611.6,103.4c38.2-191.1,224.4-315,415.9-276.6c191.5,38.4,315.8,224.4,277.6,415.6
	c-38.2,191.1-224.4,315-415.9,276.6C3697.7,480.6,3573.4,294.5,3611.6,103.4z"/>
<path class="st1" d="M4156.5,231.5C4183.1,98.3,4312.9,12,4446.4,38.8c133.5,26.7,220.1,156.4,193.5,289.6S4483.5,547.9,4350,521.1
	C4216.5,494.3,4129.9,364.7,4156.5,231.5z"/>
<path class="st1" d="M2396.7,270.5c1.9-84,71.9-150.5,156.3-148.6c84.4,2,151.3,71.7,149.4,155.7c-1.9,84-71.9,150.5-156.3,148.6
	C2461.7,424.2,2394.8,354.5,2396.7,270.5z"/>
<path class="st1" d="M1978.7,889.6c3.4-149.6,127.9-268.1,278.1-264.6s269.2,127.6,265.8,277.3c-3.4,149.6-127.9,268.1-278.1,264.6
	C2094.4,1163.3,1975.4,1039.2,1978.7,889.6z"/>
<path class="st0" d="M1242.9,369.3c7.1-310.6,265.7-556.4,577.6-549.2c312,7.3,559.1,264.9,552.1,575.5
	c-7.1,310.6-265.7,556.4-577.6,549.2C1483,937.4,1235.8,679.8,1242.9,369.3z"/>
<circle class="st0" cx="2829.5" cy="624.7" r="438.1"/>
<circle class="st1" cx="3591.8" cy="742.1" r="438.2"/>
</svg>
