<?xml version="1.0" encoding="utf-8"?>
<!-- Generator: Adobe Illustrator 19.0.1, SVG Export Plug-In . SVG Version: 6.00 Build 0)  -->
<svg version="1.1" id="Layer_1" xmlns="http://www.w3.org/2000/svg" xmlns:xlink="http://www.w3.org/1999/xlink" x="0px" y="0px"
	 viewBox="-317 290 364 422" style="enable-background:new -317 290 364 422;" xml:space="preserve">
<style type="text/css">
	.st0{fill:#FE676A;}
	.st1{fill:#53CCCA;}
</style>
<path class="st0" d="M11.9,581.2c-6.3,7.8-8.3,8.4-17.9,4.7c-35.5-13.6-72.2-21.3-110.2-23.2c-7.8-0.4-15.7-0.6-23.5-0.6
	c-6.6,0-6.6,0-4.8,6.6c5.1,19.1,10.3,38.2,15.4,57.4c5.1,19.5-8.9,36.9-28.9,36c-11.6-0.5-21.7-8.8-25.1-21
	c-5.2-18.9-10.2-37.9-15.3-56.9c-1-3.9-2.1-7.7-3-11.6c-0.7-3-1.7-4.2-5.2-3.2c-10,2.8-20.2,4.8-30.2,7.6c-11.3,3.2-21.6,1.2-31.2-5
	c-18.4-11.9-28.4-29.9-35.1-50c-3.1-9.2-4.4-18.7-6.8-28.1c0-7,0-14.1,0-21.1c1.8-2.1,1.3-4.8,1.8-7.2c1.8-7.9,4.2-15.4,8.6-22.2
	c5.1-8,12-13.6,21.4-15.9c30.9-7.8,60.9-18.2,89.4-32.8c41.9-21.6,77.3-51.1,106.6-88c1-1.3,2.1-2.4,3-3.7c2.7-3.6,6.4-4.8,10.6-4
	c4.3,0.8,6.3,4,7.3,8c3.8,14.3,7.7,28.6,11.5,42.9c20.1,74.7,40.2,149.6,60.3,224.6c0.3,1.3-0.3,3,1.3,3.9
	C11.9,579.3,11.9,580.3,11.9,581.2z M-75.2,329.7c-1.9,0.4-2.4,1.7-3.2,2.6c-17.9,20.7-38,38.9-60.4,54.7
	c-32.6,22.9-68.3,39.6-106.3,51.2c-3.8,1.2-5.4,2.8-5.3,6.9c0.2,6.2,0.3,12.5,0.8,18.7c2.4,30.3,11.3,58.6,27.2,84.6
	c1.8,2.9,3.6,3.8,6.9,3c34.6-7.8,69.5-10,104.9-7.8c31.1,1.9,61.5,7.7,91.2,16.9c1.9,0.6,4.2,2.5,5.8,1.2c1.7-1.4-0.2-3.9-0.7-5.8
	C-31.9,490.5-49.5,425-67.1,359.6C-69.8,349.6-72.5,339.7-75.2,329.7z M-247.9,559c7-0.1,8.3-1.5,5.9-5.6
	c-18.4-32.1-27.8-66.5-27.7-103.5c0-4.2-1.1-5-4.9-3.5c-8,3.1-11,9.9-13.2,17.2c-4,13.7-3.2,27.6-0.1,41.3
	c3.9,17.3,10.7,33.2,23.8,45.8C-259.4,555.2-253.9,558.5-247.9,559z M-147.5,632.9c-0.1-0.6-0.5-2-0.8-3.4c-5-18.8-10-37.6-15-56.4
	c-2.2-8.2-2.2-8.2-10.9-7.2c-1.7,0.2-3.5,0.8-5.2,0.7c-3.6-0.1-3.3,1.7-2.6,4.2c2.8,10,5.5,20,8.1,30c3.1,11.7,6.2,23.5,9.4,35.1
	c1.3,4.8,5.4,7.4,9.7,6.6C-150.5,641.9-147.5,638.2-147.5,632.9z"/>
<path class="st1" d="M-40.9,703.3c-1.3,0-2.6,0-3.8,0c-2.3-2.1-5-3.8-7-6.3c-29.4-36.9-65.1-66.4-106.1-89.5c-4.2-2.4-5-1.3-6.1,2.8
	c-5,19.4-10.3,38.6-15.4,57.9c-2.2,8.1-6.5,14.7-14,18.6c-10.6,5.5-21.2,5-30.6-2.4c-10-7.8-12.9-18.3-9.7-30.5
	c6-22.6,12-45.1,18.2-67.6c0.9-3.3,0.2-4.6-2.9-5.5c-10.6-2.9-21.2-6.1-31.8-9.1c-7.7-2.2-13.8-6.6-18.6-12.9
	c-4.7-6.2-7.5-13.3-9.5-20.8c-1.1-4.1-1-8.5-2.8-12.5c0-6.7,0-13.5,0-20.2c2.4-9.2,3.7-18.7,6.7-27.7c6.4-19.6,16.1-37,33.4-49.1
	c10.2-7.2,21.3-9.7,33.7-6c9.5,2.8,19.1,5.2,28.8,7.3c34.3,7.6,68.9,10.6,104,8c34-2.6,66.6-10.9,98.2-23.4
	c8.2-3.2,12.4-1.5,16.2,6.3c0,1.3,0,2.6,0,3.8c-1.4,1.1-1.3,2.9-1.7,4.3C14.6,516.4-8.8,603.9-32.1,691.5
	C-33.5,696.9-35.5,701.2-40.9,703.3z M-47,672.1c0.6-2,1.1-3.2,1.4-4.4c19.9-74.5,39.8-149,59.6-223.4c0.4-1.6,1.9-3.6,0.3-4.9
	c-1.3-1.1-3,0.4-4.5,0.9c-33.1,11.3-67.2,17.3-102.1,18c-31.7,0.6-62.9-3-93.8-10.1c-3.7-0.8-5.7-0.3-7.7,3.2
	c-18.9,31.9-28.4,66.3-27.7,103.4c0.1,3.2,0.6,5.1,4.2,6.3c53.8,16.9,101.2,45.1,142.8,83.1C-65.1,652.6-56.3,661.9-47,672.1z
	 M-261.6,514.7c0.2,9.9,1.1,19.2,5.5,27.9c2.2,4.4,5.1,8.1,10,9.9c4.6,1.7,5.3,1.4,5.2-3.5c-0.2-14.5,1.5-28.7,4.5-42.9
	c4.6-21.6,12.4-42,23.6-61c1.6-2.7,1.4-3.7-1.8-4.4c-4.2-1-8-0.3-11.6,1.5c-6.1,2.9-10.8,7.4-14.9,12.6
	C-254.8,472.5-260.6,493-261.6,514.7z M-206.8,670.7c4.6,0,7.3-2.5,8.9-8.4c4.7-17.4,9.3-34.9,14-52.3c3.5-13.3,3.5-13.2-9.5-18.1
	c-2.6-1-3.6-0.5-4.2,2.2c-1.9,7.7-4.1,15.4-6.2,23.1c-3.7,14-7.6,28.1-11.2,42.1C-216.6,665.7-212.8,670.8-206.8,670.7z"/>
</svg>
