<?xml version="1.0" encoding="utf-8"?>
<!-- Generator: Adobe Illustrator 19.0.0, SVG Export Plug-In . SVG Version: 6.00 Build 0)  -->
<svg version="1.1" id="Layer_1" xmlns="http://www.w3.org/2000/svg" xmlns:xlink="http://www.w3.org/1999/xlink" x="0px" y="0px"
	 viewBox="-314 309 371 383" style="enable-background:new -314 309 371 383;" xml:space="preserve">
<style type="text/css">
	.st0{enable-background:new    ;}
	.st1{fill:#FF6669;}
	.st2{fill:#52CCCA;}
</style>
<g class="st0">
	<path class="st1" d="M-116.4,678.5c0,7-7.4,12.8-14.5,12.8s-14.1-5.8-14.1-12.8v-35.6c-40.9-5-68.2-29.8-78.6-62
		c-0.8-2.9-1.2-5.8-1.2-8.3c0-11.6,9.1-17.8,19-17.8c8.3,0,14.9,5.8,17.4,13.6c5.8,21.1,29,39.7,60,39.7c37.6,0,57.5-22.7,57.5-45.9
		c0.4-28.1-24-40.5-48.4-46.7l-36.8-9.1c-60.4-14.9-69.5-50-69.5-74.4c0-43.8,36.8-74.9,80.7-79.4V322c0-7,7-12.8,14.1-12.8
		s14.1,5.8,14.1,12.8v31c36.8,5,62.9,26.9,72,59.1c0.8,2.9,1.2,6.2,1.2,9.5c0,9.1-4.5,17.4-19,17.4c-7,0-14.9-2.9-17.8-13.2
		c-7-26.5-27.3-37.2-53.4-37.2c-27.7,0-53.4,17-53.4,43c0,12.4,4.5,31,40.5,39.7l37.2,9.1c48.8,12,76.9,39.3,76.9,78.2
		c0,43-30.2,80.2-84,85.2V678.5z"/>
</g>
<g class="st0">
	<path class="st2" d="M47.4,533.7c6.8,1.8,10.5,10.5,8.6,17.3c-1.8,6.8-9.2,12.1-16,10.3l-34.4-9.2c-15.4,38.3-46.4,58.2-80.3,59.9
		c-3,0-5.9-0.3-8.3-0.9c-11.2-3-14.8-13.4-12.3-23c2.1-8,9.4-12.9,17.7-13.2c21.9-0.1,45.8-17.7,53.9-47.7
		c9.7-36.4-7.1-61.4-29.5-67.4c-27.1-7.7-45.4,12.7-57.7,34.6l-18.3,33.2c-30,54.5-66.3,54.2-89.9,47.9
		c-42.3-11.3-62.8-54.9-55.8-98.5l-29.6-7.9c-6.8-1.8-10.6-10.1-8.7-16.9c1.8-6.8,9.2-12.1,16-10.3l30,8
		c14.3-34.3,42.2-53.8,75.8-54.2c3,0,6.3,0.4,9.5,1.3c8.8,2.4,15.6,8.9,11.9,22.9c-1.8,6.8-6.7,13.6-17.4,13.8
		c-27.4-0.1-43,16.7-49.8,41.9c-7.2,26.8,2.6,55.9,27.7,62.7c12,3.2,31.1,3.6,48.8-28.9l18.4-33.6c24.2-44,57.9-64.1,95.4-54.1
		c41.5,11.1,69.7,49.9,60.6,103.2L47.4,533.7z"/>
</g>
</svg>
