<?xml version="1.0" encoding="utf-8"?>
<!-- Generator: Adobe Illustrator 19.0.0, SVG Export Plug-In . SVG Version: 6.00 Build 0)  -->
<svg version="1.1" id="Layer_1" xmlns="http://www.w3.org/2000/svg" xmlns:xlink="http://www.w3.org/1999/xlink" x="0px" y="0px"
	 viewBox="15.6 64 1098.1 902.6" style="enable-background:new 15.6 64 1098.1 902.6;" xml:space="preserve">
<style type="text/css">
	.st0{enable-background:new    ;}
	.st1{fill:#FF6669;}
	.st2{fill:#52CCCA;}
</style>
<g class="st0">
	<path class="st1" d="M925.4,271.1c64.5,8.3,113.3,42.2,139.8,92.6c14.1,27.3,2.5,53.8-18.2,67c-29.8,19-56.2,10.8-76.1-14.1
		c-24-30.6-55.4-39.7-81-39.7c-42.2,0-73.6,24.8-73.6,58.7c0,14.9,5.8,42.2,61.2,57.9l67.8,19.8c138.1,39.7,158,117.4,156.3,172
		c-1.7,102.5-86,156.3-176.2,165.4v71.9c0,15.7-14.1,28.9-31.4,28.9c-15.7,0-30.6-13.2-30.6-28.9v-71.9
		C779.9,841.7,719.5,795.4,698,730c-9.1-28.9,4.1-57.1,32.3-67.8c32.3-12.4,62.9,5,74.4,28.9c12.4,25.6,40.5,53.8,91.8,53.8
		c48.8,0,82.7-23.2,83.5-60.4c0.8-25.6-10.8-48-68.6-64.5l-68.6-19C717,562.2,695.5,490.2,695.5,438.9c0-92.6,71.9-158,167.9-168.7
		v-63.7c0.8-15.7,14.9-28.9,30.6-28.9c17.4,0,31.4,13.2,31.4,28.9V271.1z"/>
</g>
<g class="st0">
	<path class="st2" d="M706.4,238.1c64.5,8.3,113.3,42.2,139.8,92.6c14.1,27.3,2.5,53.8-18.2,67c-29.8,19-56.2,10.8-76.1-14.1
		c-24-30.6-55.4-39.7-81-39.7c-42.2,0-73.6,24.8-73.6,58.7c0,14.9,5.8,42.2,61.2,57.9l67.8,19.8c138.1,39.7,158,117.4,156.3,172
		c-1.7,102.5-86,156.3-176.2,165.4v71.9c0,15.7-14.1,28.9-31.4,28.9c-15.7,0-30.6-13.2-30.6-28.9v-71.9
		C560.9,808.7,500.5,762.4,479,697c-9.1-28.9,4.1-57.1,32.3-67.8c32.3-12.4,62.9,5,74.4,28.9c12.4,25.6,40.5,53.8,91.8,53.8
		c48.8,0,82.7-23.2,83.5-60.4c0.8-25.6-10.8-48-68.6-64.5l-68.6-19C498,529.2,476.5,457.2,476.5,405.9c0-92.6,71.9-158,167.9-168.7
		v-63.7c0.8-15.7,14.9-28.9,30.6-28.9c17.4,0,31.4,13.2,31.4,28.9V238.1z"/>
</g>
<g class="st0">
	<path class="st1" d="M487.4,206.1c64.5,8.3,113.3,42.2,139.8,92.6c14.1,27.3,2.5,53.8-18.2,67c-29.8,19-56.2,10.8-76.1-14.1
		c-24-30.6-55.4-39.7-81-39.7c-42.2,0-73.6,24.8-73.6,58.7c0,14.9,5.8,42.2,61.2,57.9l67.8,19.8c138.1,39.7,158,117.4,156.3,172
		c-1.7,102.5-86,156.3-176.2,165.4v71.9c0,15.7-14.1,28.9-31.4,28.9c-15.7,0-30.6-13.2-30.6-28.9v-71.9
		C341.9,776.7,281.5,730.4,260,665c-9.1-28.9,4.1-57.1,32.3-67.8c32.3-12.4,62.9,5,74.4,28.9c12.4,25.6,40.5,53.8,91.8,53.8
		c48.8,0,82.7-23.2,83.5-60.4c0.8-25.6-10.8-48-68.6-64.5l-68.6-19C279,497.2,257.5,425.2,257.5,373.9c0-92.6,71.9-158,167.9-168.7
		v-63.7c0.8-15.7,14.9-28.9,30.6-28.9c17.4,0,31.4,13.2,31.4,28.9V206.1z"/>
</g>
<g class="st0">
	<path class="st2" d="M268.4,173.1c64.5,8.3,113.3,42.2,139.8,92.6c14.1,27.3,2.5,53.8-18.2,67c-29.8,19-56.2,10.8-76.1-14.1
		c-24-30.6-55.4-39.7-81-39.7c-42.2,0-73.6,24.8-73.6,58.7c0,14.9,5.8,42.2,61.2,57.9l67.8,19.8c138.1,39.7,158,117.4,156.3,172
		c-1.7,102.5-86,156.3-176.2,165.4v71.9c0,15.7-14.1,28.9-31.4,28.9c-15.7,0-30.6-13.2-30.6-28.9v-71.9
		C122.9,743.7,62.5,697.4,41,632c-9.1-28.9,4.1-57.1,32.3-67.8c32.3-12.4,62.9,5,74.4,28.9c12.4,25.6,40.5,53.8,91.8,53.8
		c48.8,0,82.7-23.2,83.5-60.4c0.8-25.6-10.8-48-68.6-64.5l-68.6-19C60,464.2,38.5,392.2,38.5,340.9c0-92.6,71.9-158,167.9-168.7
		v-63.7c0.8-15.7,14.9-28.9,30.6-28.9c17.4,0,31.4,13.2,31.4,28.9V173.1z"/>
</g>
</svg>
