<?xml version="1.0" encoding="utf-8"?>
<!-- Generator: Adobe Illustrator 19.0.0, SVG Export Plug-In . SVG Version: 6.00 Build 0)  -->
<svg version="1.1" id="Layer_1" xmlns="http://www.w3.org/2000/svg" xmlns:xlink="http://www.w3.org/1999/xlink" x="0px" y="0px"
	 viewBox="-339 308 320 386" style="enable-background:new -339 308 320 386;" xml:space="preserve">
<style type="text/css">
	.st0{fill:#FE676A;}
	.st1{fill:none;enable-background:new    ;}
	.st2{fill:#53CCCA;}
</style>
<path class="st0" d="M-208,323.9c5.6,1.8,11.6,1.4,17.3,2.8c45.6,10.9,75.5,38.5,88.1,83.7c8.3,30,1.2,58-13.2,84.7
	c-3.3,6-6.7,12-10.8,17.5c-3.4,4.5-4.3,9.2-3.4,14.5c1,6,1.9,12,2.9,18c4.1,24.5-11.6,46.6-35.9,50.6c-16.8,2.8-33.5,5.5-50.3,8.1
	c-22,3.5-44.4-13.3-48-35.7c-1.1-7.1-2.5-14.1-3.6-21.2c-0.6-4.3-2.9-7.3-6.4-9.8c-18.4-13.6-34.1-29.7-45-50.1
	c-5.8-10.9-9.1-22.5-10.7-34.6c-0.1-0.8,0-1.6-0.9-1.9c0-8.4,0-16.9,0-25.3c2.1-3.6,1.9-7.7,2.7-11.6c8.8-41.9,44.8-77.6,86.6-86.1
	c6.5-1.3,13.1-1.4,19.4-3.6C-215.5,323.9-211.8,323.9-208,323.9z M-303.8,439.7c-0.5,15.7,4.7,30.9,14.1,44.9
	c8.8,13.1,20,23.9,32.7,33.2c8.2,6,13.7,13.5,15.4,23.6c1.1,6.6,2.4,13.2,3.5,19.8c2.2,13.9,10.8,20.5,24.6,18.4
	c15.4-2.4,30.8-4.9,46.1-7.5c10.9-1.8,17.6-10.2,16.6-21.3c-0.5-5.6-1.4-11.1-2.6-16.6c-2.7-13.2-1.2-25.3,7.5-36.2
	c5.6-7.1,9.7-15.3,13.4-23.5c7.1-15.7,11-32,8.4-49.2c-7.3-48.2-50.4-81.3-98.8-76.4C-268.8,353.6-303.9,392.4-303.8,439.7z"/>
<path class="st0" d="M-229.6,682.9c-5.4-3.5-9.7-7.5-8.1-14.7c1.7-7.4,7.5-9.1,14.1-10.1c31.1-4.9,62.1-10.1,93.2-15.1
	c6.3-1,12.2,3.3,13.5,9.6c1.3,6.5-2.1,12.4-8.7,13.7c-12.6,2.4-25.4,4.3-38.1,6.4c-19.6,3.2-39.2,6.4-58.8,9.6
	c-0.2,0-0.4,0.4-0.5,0.7C-225.2,682.9-227.4,682.9-229.6,682.9z"/>
<path class="st0" d="M-135.3,605.2c6.6,0,11.9,4.6,12.6,10.7c0.7,6.5-3.6,12.3-10.4,13.4c-15.4,2.6-30.8,5.1-46.2,7.5
	c-16.6,2.7-33.3,5.3-49.9,8c-7.4,1.2-13.4-2.8-14.6-9.7c-1.2-6.7,3-12.9,10-14c32.3-5.4,64.6-10.6,97-15.8
	C-136.2,605.3-135.6,605.2-135.3,605.2z"/>
<path class="st0" d="M-205.6,366.1c31.1,0,58.2,23.2,62.9,53.6c1,6.2-2.9,11.8-9.2,13.3c-5.6,1.3-11.4-1.9-13.3-7.6
	c-0.3-0.9-0.5-1.8-0.7-2.7c-4.7-21.4-21.4-34.1-43.4-33.4c-7,0.2-11.4-2.1-13.4-7.1c-2.9-7.3,1.9-15.1,10.1-16
	C-210.3,365.9-207.9,366.1-205.6,366.1z"/>
<path class="st1" d="z"/>
<path class="st2" d="M-28,445.8c-1.9,4.9-1.7,10.3-3,15.3c-5,18.6-14.7,34.6-27.2,49.1c-6.4,7.5-13.4,14.4-21.2,20.4
	c-4.6,3.5-5,8.4-5.6,13.3c-0.8,6.2-1.3,12.4-1.9,18.6c-2.5,22.7-23.9,40-46.8,37.7c-17.1-1.7-34.1-3.4-51.1-5.4
	c-22.4-2.6-39.9-23.5-37.3-46.9c0.7-6.5,1.2-13,1.9-19.5c0.6-5.1-0.7-9.3-4-13.4c-15.1-18.9-26.4-39.7-31.1-63.7
	c-0.8-4.4-0.3-8.9-2.3-13.1c0-2.2,0-4.4,0-6.6c1.7-4.7,1.3-9.7,2.1-14.5c7.9-47.3,42.7-83.4,89.9-93.6c3.7-0.8,7.7-0.5,11.2-2.5
	c6.2,0,12.5,0,18.8,0c4.9,1.6,10.1,1,15,2.2c47.5,11.1,77.8,40,90.1,87.4c1.1,4.2,0.8,8.6,2.7,12.6C-28,430.8-28,438.2-28,445.8z
	 M-52,440.9c-0.3-31.4-9.5-53.2-27.9-70.6c-39.4-37.2-100-32.9-133.8,9.5c-16,20-22.3,43.1-17.5,68.5c3.7,19.8,13.6,36.7,26.1,52.2
	c5.9,7.4,9.5,15.4,9,24.9c-0.4,7.6-1.2,15.2-2.2,22.8c-1.7,12.3,6.2,22.2,18.6,23.2c4.3,0.3,8.7,0.9,13,1.4
	c11.8,1.1,23.6,2.6,35.4,3.3c11.2,0.7,19.2-6.3,20.7-17.3c0.6-4.2,0.8-8.4,1.2-12.6c1-13,3.3-25.4,14.7-34
	c6.7-5.1,12.6-11.2,18.2-17.6C-61.9,477.6-51.6,458.5-52,440.9z"/>
<path class="st2" d="M-121.8,678.2c-6.7-2.1-13.7-1.9-20.5-2.7c-14.6-1.8-29.3-3.1-44-4.6c-9.9-1-19.8-2-29.7-3
	c-6.7-0.7-11.1-5.8-10.8-12.3c0.3-6.3,5.5-11.5,12.1-11.2c8.5,0.4,17.1,1.4,25.6,2.2c17,1.7,34.1,3.5,51.1,5.2
	c7.3,0.7,14.6,1.3,21.9,2.1c6,0.7,10.3,4.5,11.2,9.7c1.2,6.3-1.3,10.4-8.4,14.5C-116.1,678.2-118.9,678.2-121.8,678.2z"/>
<path class="st2" d="M-100.9,628.3c0,7.4-6.1,12.9-13.5,12.1c-27.1-2.8-54.2-5.5-81.3-8.2c-5.4-0.5-10.8-1.1-16.3-1.8
	c-6.8-0.8-11.7-6.8-10.9-13.3c0.8-6.6,7-11.4,13.6-10.8c32.4,3.3,64.7,6.6,97.1,10C-105.3,617-101,621.7-100.9,628.3z"/>
<path class="st2" d="M-69.2,428.7c0,1.4,0,2.8,0,4.2c-0.3,8.1-5,13.1-12.2,12.9c-6.9-0.2-11.5-5.6-11.1-13.4
	c0.5-9.9-1.6-18.9-7.4-27c-6.5-9.1-15.3-14.5-26.1-16.8c-7.7-1.6-11.9-7-10.7-13.8c1.2-6.6,7.4-10.3,15-8.9
	C-91.2,371.5-69.2,397.8-69.2,428.7z"/>
<path class="st1" d="z"/>
</svg>
