<?xml version="1.0" encoding="utf-8"?>
<!-- Generator: Adobe Illustrator 19.0.0, SVG Export Plug-In . SVG Version: 6.00 Build 0)  -->
<svg version="1.1" id="Layer_1" xmlns="http://www.w3.org/2000/svg" xmlns:xlink="http://www.w3.org/1999/xlink" x="0px" y="0px"
	 viewBox="-2 19 994 964" style="enable-background:new -2 19 994 964;" xml:space="preserve">
<style type="text/css">
	.st0{fill:#FE6669;}
	.st1{fill:#52CBC9;}
</style>
<g>
	<path class="st0" d="M285.6,179.8c6.1,2.3,12.7,2,18.9,3.5c65.6,15.4,108.7,54.8,126.3,120.3c18.2,68.1-12.9,142.2-74.1,178.5
		c-3.7,2.2-4.5,4.1-3.4,8.3c7,25.4,13.8,50.9,20.5,76.5c1,3.7,2.2,4.2,5.9,3.2c13.8-3.7,27.4-8.6,41.5-10.6c19.2-2.8,37,8.6,43,26.6
		c6.1,18.2-1.6,38.1-18.5,47.6c-6.6,3.7-14.1,4.9-21.3,6.9c-8.1,2.3-16.2,4.6-24.4,6.5c-3.7,0.8-4.1,2.5-3.2,5.7
		c3.1,11.2,6.2,22.4,9.1,33.6c0.8,3,1.9,3.4,4.6,2.6c12.1-3.4,24.2-6.6,36.4-9.8c27.9-7.2,52.4,13,50.9,41.7
		c-0.9,16.3-13.2,30.8-30.2,35.4c-12,3.2-23.9,6.5-36,9.5c-3.1,0.8-4.1,1.8-3.1,5.2c3.2,11,6.2,22.1,8.9,33.2c0.9,3.8,2.4,4.2,6,3.2
		c24.8-6.8,49.7-13.4,74.6-20c18.6-4.9,36.8,1.8,45.9,17.7c15,26.4-1.8,52.9-22.9,58.4c-41,10.8-81.9,22-122.8,32.8
		c-19.6,5.2-40.6-7.6-46.4-28.4c-5.7-20.2-10.9-40.5-16.3-60.8c-26.5-98.9-53-197.8-79.4-296.7c-1-3.9-2.7-4.8-6.5-4.8
		c-68.9-0.4-132.8-47.7-152.5-112.6c-3.5-11.6-6.4-23.2-7.4-35.3c-0.1-0.8,0-1.6-1-2c0-8,0-15.9,0-23.9c1.3-0.7,0.9-1.9,1-2.9
		c0.7-7.1,1.6-14.2,3.4-21.1c17.6-66.6,59.7-108.1,126.8-124.2c6.9-1.6,14-1.5,20.8-3.7C269.1,179.8,277.4,179.8,285.6,179.8z
		 M356,342.8c0.7-43.7-36.4-81.6-80.3-82.9c-45.8-1.4-85.2,34.2-86.5,81.1c-1.2,46.9,36,85.1,83.3,85
		C319.3,425.9,355.5,388.7,356,342.8z"/>
</g>
<g>
	<path class="st1" d="M384.1,895.8c0-3.2,0-6.4,0-9.6c1.7-2.4,1.7-5.4,2.4-8.1c31.7-118,63.3-236.1,95-354.1c1.2-4.4,0.6-6.6-3.5-9
		c-60.1-36.1-91.2-108.2-74.6-175c16.6-66.8,59.7-107.2,126.2-123.4c6-1.4,12.2-1.3,18.1-3.5c9.2,0,18.5,0,27.7,0
		c0.5,0.8,1.3,0.8,2.1,0.9c12,0.9,23.5,3.7,34.9,7.3c92.5,29,144.5,137.5,94.3,231.2c-29.8,55.7-78.5,83.3-141.4,86.2
		c-3.6,0.2-5.2,1.1-6.2,4.7c-6.6,25.4-13.4,50.8-20.3,76.1c-1.1,4.1-0.7,5.8,3.8,6.9c11.4,2.7,22.8,6,34.1,9.1
		c22.7,6.2,35.6,27.3,29.9,49c-5.7,21.9-27.6,34.1-50.5,28.1c-11.8-3.1-23.7-6.3-35.5-9.6c-3-0.8-4.2-0.2-5,2.9
		c-2.9,11.3-5.8,22.5-9.1,33.6c-1,3.5,0,4.6,3.4,5.4c12.6,3.2,25.3,6.5,37.8,10.2c18.2,5.4,30.4,23.7,28.2,41.6
		c-3.2,25.6-25.7,41.1-50.8,34.7c-12.2-3.1-24.3-6.4-36.4-9.8c-2.7-0.8-4-0.5-4.8,2.4c-3,11.7-6.1,23.4-9.4,35
		c-0.8,2.9,0.3,3.6,2.8,4.2c5.7,1.4,11.4,3,17.1,4.6c20.3,5.4,40.6,10.6,60.8,16.4c20.9,6,32.9,27.3,27.3,47.8
		c-5.7,21.3-26.3,34.5-46.6,29.1c-40.9-10.7-81.7-21.9-122.6-32.9c-14.5-3.9-23.1-13.8-27.4-28C385.4,899,385.7,897,384.1,895.8z
		 M562.8,459.2c45.8,0,83.1-37.2,83.1-82.8c0-45.7-37.5-83-83.6-83c-45.9-0.1-83.3,37-83.3,82.6
		C478.9,421.8,516.5,459.2,562.8,459.2z"/>
</g>
<g>
	<path class="st0" d="M685.2,147c41.3,3.7,76.8,19.8,105.7,49.5c25.5,26.1,40.9,57.7,44.2,94c6.3,68.8-21,121.6-78.9,158.7
		c-2.8,1.8-3.5,3.2-2.6,6.5c7,25.6,13.9,51.2,20.5,77c1.1,4.4,2.8,4.9,6.8,3.7c11.9-3.5,23.9-6.7,35.9-9.7
		c26.3-6.5,50.3,12.7,49.9,39.7c-0.2,16.7-11.7,31.9-28.3,36.9c-12.6,3.7-25.4,7.1-38.2,10.3c-3.1,0.8-3.9,1.9-3,4.9
		c3.2,11.3,6.3,22.7,9.1,34.1c0.8,3.2,2.1,3.6,5,2.8c12.6-3.5,25.1-7,37.8-10.1c18.1-4.4,36.4,3.9,44.9,20.1
		c8.5,16.4,4.9,35.7-8.9,48.3c-4.9,4.5-10.8,7.3-17.2,9c-11.8,3.2-23.6,6.4-35.5,9.5c-3.2,0.8-4.4,1.7-3.3,5.4
		c3.3,11,6.1,22.1,8.9,33.2c0.9,3.5,2.3,4.1,5.6,3.2c25-6.8,50-13.6,75.1-20.2c27.8-7.4,52.6,12.6,51.3,41.2
		c-0.7,15.5-12.4,30.6-27.7,34.7c-41.2,11.2-82.4,22.3-123.7,33.1c-19.6,5.2-40.6-7.8-46.4-28.5c-6.8-24.7-13.3-49.4-20-74.1
		c-25.3-94.6-50.6-189.2-75.9-283.8c-0.8-3.1-2-4.2-5.4-4.3c-67.8-1-127.2-42.4-151-105.4c-5.1-13.5-8.4-27.6-9.8-42.1
		c-0.1-1.2,0.5-2.6-1-3.4c0-1,0-1.9,0-2.9c1.3-1.4,0.6-3,0.6-4.6c-0.3-12.5,0.4-24.9,3.3-37c14.2-59.2,49.4-100,106.9-121
		C641.1,148.2,663,145.9,685.2,147z M589.8,309.8c0,45.4,37.7,83,83.3,82.9c45.7,0,83.5-37.6,83.7-83.2c0.2-45.7-37.4-83-83.5-83
		C627.3,226.6,589.7,264.1,589.8,309.8z"/>
</g>
<g>
	<path class="st1" d="M191.7,42.8c16.6-0.9,33.2,0.7,49.3,4.9c0.2,0.1,0.4,0.1,0.6,0.2C334.5,72.5,386,173.8,351.4,263.4
		c-23.9,61.8-83.4,103.1-149.7,103.8c-4,0-5.4,1.4-6.4,5.1c-6.7,25.6-13.5,51.1-20.6,76.5c-1.2,4.2,0.1,5.4,3.9,6.3
		c11.9,2.9,23.7,6.2,35.5,9.5c21.9,6.2,34.3,27.5,28.5,48.9c-5.7,21.4-27.3,33.6-49.3,27.9c-12.3-3.2-24.6-6.5-36.9-9.9
		c-3.2-0.9-4.2,0.1-4.9,3.9c-2,10.9-4.9,21.5-8.6,32c-1.5,4.2-0.4,5.3,2.9,6.2c12,3.1,24,6.3,36,9.6c22.2,6.1,34.7,27.4,29,49.1
		c-5.7,21.4-27.5,33.7-49.8,27.8c-11.9-3.1-23.7-6.2-35.5-9.5c-3.8-1.1-5.3-0.3-6.1,5.3c-1.4,9.7-4.1,19.1-7.6,28.2
		c-2,5.1-2,7.8,2.6,8.3c1.1,0.1,2.1,0.6,3.2,0.9c24.4,6.6,48.9,12.9,73.3,19.8c21.8,6.2,33.5,27.7,27.4,49.4
		c-5.9,21-27.2,32.9-48.8,27.1c-39.8-10.7-79.6-21.4-119.3-32.1c-14.1-3.8-23-13-27.7-26.5c-0.3-0.9-0.4-1.9-0.7-2.8
		c-0.4-4-0.9-9.6-1.2-13.6c0.7-2.7,1.4-5.4,2.2-8.1C54.6,588.3,86.2,470.1,118,352c1.1-4.2,0.3-6-3.4-8.2
		C53.7,307.5,23.1,234.7,40,166.7C55.1,105.9,100.6,61,160.2,46.5c7.6-1.8,15.4-2.9,23.2-3.3L191.7,42.8z M282.1,205.4
		c0.2-45.9-37.1-83.5-82.9-83.7c-45.4-0.2-83.4,36.8-83.7,81.4c-0.3,46.8,36.6,84.6,82.7,84.8C244.6,288,281.9,251.4,282.1,205.4z"
		/>
</g>
</svg>
