<?xml version="1.0" encoding="utf-8"?>
<!-- Generator: Adobe Illustrator 19.0.1, SVG Export Plug-In . SVG Version: 6.00 Build 0)  -->
<svg version="1.1" id="Layer_1" xmlns="http://www.w3.org/2000/svg" xmlns:xlink="http://www.w3.org/1999/xlink" x="0px" y="0px"
	 viewBox="-11 385.2 977 230.6" style="enable-background:new -11 385.2 977 230.6;" xml:space="preserve">
<style type="text/css">
	.st0{enable-background:new    ;}
	.st1{fill:#2FBAB7;}
</style>
<g class="st0">
	<path class="st1" d="M42.3,542c0.6,13,10.9,24.5,30.4,24.5c17.4,0,29.5-8.3,29.8-21.5c0.3-9.1-3.8-17.1-24.5-23l-24.5-6.8
		C8.7,501.4,1,475.1,1,456.9c0-36.2,30.9-60.7,69.8-60.7c39.2,0,68.7,23.3,68.7,62.2h-43c0-13.6-9.1-23-26.2-23
		c-15,0-26.2,8.3-26.2,20.3c0,5.3,2.1,15,21.8,20.6l24.2,7.7c49.2,14.1,56.3,41.8,55.7,61.3c-0.6,40.4-37.1,59.5-73.1,59.5
		C28.5,604.8-1,578.6-1,542H42.3L42.3,542z"/>
	<path class="st1" d="M257.1,463.9v32.4h-28.9v105.2h-40.7V496.3h-25v-32.4h25v-52.7h40.7v52.7H257.1z"/>
	<path class="st1" d="M382,585.9c-8.8,13.3-29.5,18.3-40.1,18.3c-35.1,0-70.1-27.4-70.1-71.6s35.1-71.6,70.1-71.6
		c8.8,0,29.5,2.9,40.1,18.3v-15.4h40.7v137.6H382V585.9z M348.7,565.3c16.8,0,33.3-12.1,33.3-32.7c0-20.6-16.5-32.7-33.3-32.7
		c-17.1,0-34.5,13-34.5,32.7S331.6,565.3,348.7,565.3z"/>
	<path class="st1" d="M501.4,601.5h-41V463.9h41v33.3c7.1-25.6,24.8-36.2,38.9-36.2c9.7,0,17.1,1.8,23.6,5l-7.4,36.8
		c-7.4-3.5-14.4-4.1-20.9-4.1c-23.6,0-34.2,18.6-34.2,54.8L501.4,601.5L501.4,601.5z"/>
	<path class="st1" d="M667.5,463.9v32.4h-28.9v105.2h-40.7V496.3h-25v-32.4h25v-52.7h40.7v52.7H667.5z"/>
	<path class="st1" d="M816.9,576.5c-13.8,20.6-39.5,28-62.8,28c-39.5,0-71.9-28.9-71.9-72.2s32.4-71.3,71.9-71.3
		c39.2,0,70.4,29.2,70.4,72.5c0,3.5-0.3,9.1-0.6,12.7H723.2c2.1,15.9,19.4,23,33.9,23c11.2,0,23.3-4.1,30.1-13L816.9,576.5z
		 M783.3,520.5c-2.1-16.8-17.4-23.6-28.9-23.6s-27.1,6.2-30.6,23.6H783.3z"/>
	<path class="st1" d="M893.5,601.5h-41V463.9h41v33.3c7.1-25.6,24.8-36.2,38.9-36.2c9.7,0,17.1,1.8,23.6,5l-7.4,36.8
		c-7.4-3.5-14.4-4.1-20.9-4.1c-23.6,0-34.2,18.6-34.2,54.8L893.5,601.5L893.5,601.5z"/>
</g>
</svg>
