<?xml version="1.0" encoding="utf-8"?>
<!-- Generator: Adobe Illustrator 19.0.0, SVG Export Plug-In . SVG Version: 6.00 Build 0)  -->
<svg version="1.1" id="Layer_1" xmlns="http://www.w3.org/2000/svg" xmlns:xlink="http://www.w3.org/1999/xlink" x="0px" y="0px"
	 viewBox="-11 327 977 347" style="enable-background:new -11 327 977 347;" xml:space="preserve">
<style type="text/css">
	.st0{enable-background:new    ;}
	.st1{fill:#B3B3B3;}
	.st2{fill:#FF6669;}
	.st3{fill:#2FBAB7;}
</style>
<g class="st0">
	<path class="st1" d="M-1.9,602.9c2.5,0,6.9-0.4,8.7-0.7c-0.1,2.2-0.4,7.9-0.4,14.6v5.5c3.2-3.1,5.9-4.7,9.5-4.7
		c3.4,0,5.8,1.5,7.3,3.9c1.1,1.7,1.8,4.8,1.8,7.9c0,9.1-4.4,14.4-12.7,14.4c-2.5,0-5.6-0.7-7-1.7c-1,0.5-2.3,1.2-3.3,1.7l-0.3-0.2
		c0-2.4,0.2-8.4,0.2-15.1v-14.9c0-5.1-0.2-7.5-0.2-9.1c-0.1-0.9-0.6-1-3.6-1L-1.9,602.9z M12.4,643c5.7,0,7.5-5.8,7.5-13.1
		c0-3.2-0.5-6-1.7-7.9c-1-1.6-2.6-2.6-4.7-2.6c-3.4,0-5.5,2.2-6.5,4.4c-0.5,0.9-0.6,1.5-0.6,7.8c0,7.1,0.2,7.4,0.7,8.3
		C8.3,642.1,10.4,643,12.4,643L12.4,643z"/>
	<path class="st1" d="M25.7,618.1c1.5,0.1,3.5,0.2,5.4,0.2c2,0,4.5-0.1,5.6-0.2l0.2,0.7l-1.6,0.2c-1.1,0.2-1.2,0.4-0.9,1.4
		c1.8,5.4,5.5,14.6,6.6,17.9c1.8-5.2,4.3-13.4,5.4-17.4c0.4-1.4-0.2-1.7-1.6-1.8l-2-0.2l0.2-0.7c1,0,3,0.2,4.3,0.2
		c1.6,0,3.4-0.2,4.7-0.2l-0.2,0.7c-2.5,0.2-2.9,0.5-4,3c-1.6,4.1-6.6,18.7-9.1,26.2c-1.9,6.1-3.5,9.9-7.1,9.9
		c-2.4,0-3.4-1.6-3.4-3.2s1.1-2.4,2.2-2.4c0.8,0,1.3,0.5,1.5,1.1c0.4,1.2,0.7,1.9,1.6,1.9c1.8,0,3.8-6.3,5.3-11
		c-0.5-0.5-1-1.5-1.4-2.4c-3.1-8-6.5-17.5-8.1-20.8c-0.8-1.6-1.2-1.9-2.2-2.1l-1.5-0.2L25.7,618.1z"/>
</g>
<g class="st0">
	<path class="st2" d="M76.9,606.9c1-1.8,3.7-8.7,4.8-11.9c0.8,0.4,2.1,0.7,4.3,0.8c2.4,0.1,5.7,0.2,10.4,0.2h4.8
		c11.8,0,14.1-0.1,16.5-1c-0.7,1.4-3.3,8.5-4.2,12.1l-1,0.4c0.7-3.4,0.9-6.2,0.9-7.6c-0.1-2.3-0.7-2.9-11.8-2.8
		c-2,5.8-4.1,13.4-6.2,20.6c-2.1,7.3-4.7,16.1-6,22.2c-0.3,1.5,0,2,1.4,2.1c2.4,0.2,3.6,0.4,4.9,0.4l-0.4,0.9
		c-1.7,0-6.5-0.3-10.4-0.3c-2.8,0-7.1,0.3-10,0.3l0.3-0.9c1.3-0.1,2.1-0.1,4.1-0.4c1.5-0.1,2.5-0.6,3-2c2.2-6.1,4.6-14,7.3-22.9
		c2.6-8.7,4.6-15.4,5.8-20.1c-10.3,0-11.3,0.4-13.5,3.5c-1.7,2.3-3.2,4.8-4.3,6.8L76.9,606.9z"/>
	<path class="st2" d="M121.2,595.8c1.3-0.1,5.4,0.2,7.9,0.2c2.3,0,5.7-0.2,9.7-0.2c5.3,0,7.9,0.7,9.7,2.4c1.7,1.5,2.3,3.9,2.3,6.4
		c0,9-7.6,13-16.8,14.3v0.3c7.9,1.2,10.1,3.7,10.4,6.6c0.7,2,0.4,4.9-1.1,10.8c-1,3.7,0.1,6,3,6c0.7,0,1.5-0.1,2.1-0.2l-0.6,1
		c-1,0.2-2.4,0.4-3.7,0.4c-6.1,0-8.3-2.5-7.1-7.9c0.6-2.6,1.2-5,1.6-7c1.5-6.5-1.2-8-5-8.6c-2.8-0.5-6-0.7-7.4-0.5
		c-4,13.5-4.9,17.3-5.5,19.8c-0.4,1.8-0.1,2.4,2.1,2.6l3.2,0.3l-0.5,0.9c-1.3,0-5.4-0.2-9.1-0.2c-2.9,0-6.8,0.2-8.5,0.2l0.4-0.9
		l2.4-0.2c2.3-0.3,2.8-0.9,3.5-2.7c1-2.3,3.2-10.1,6.5-20.9c3.4-11.2,4.9-16.9,5.5-19.3c0.4-1.7,0.1-2.2-1.6-2.4l-3.8-0.4
		L121.2,595.8z M135.4,596.9c-1.5,0-2.3,0.4-2.7,1.6c-0.7,1.6-1.2,4-6,19.8c0.7,0.1,1.5,0.1,2,0.1c9.1,0,15.8-5.6,15.8-14.9
		c0-1.9-0.4-3.5-1.2-4.5c-1.1-1.3-2.8-2.2-6.5-2.2H135.4z"/>
	<path class="st2" d="M162.8,595.7c2.1,0,5.5,0.2,8.2,0.2c3.7,0,7.1-0.2,8.7-0.2l-0.3,0.9l-3,0.4c-1.5,0.1-2,0.6-2.7,2.5
		c-1,2.4-3.2,9.8-6.2,19.8c-3,10.2-5.2,17.8-5.7,20.4c-0.4,1.9,0.1,2.2,1.5,2.4l3.7,0.4l-0.4,0.9c-1.8,0-6.7-0.3-9-0.3
		c-3.6-0.1-7,0.3-8.7,0.3l0.3-0.9l3-0.4c1.9-0.1,2.4-0.6,3.2-2.6c1-2.7,2.4-7.1,6.3-20.2c3.2-10.7,4.9-16.6,5.6-19.5
		c0.6-2.1,0.4-2.6-1.2-2.9l-3.5-0.3L162.8,595.7z"/>
	<path class="st2" d="M184.7,595.8c1.5,0,5,0.2,7.4,0.2c2.1,0,3.6-0.1,4.8-0.2c0.1,4.6,2.9,28.7,3.6,37.8c7.8-12.3,22-34,24.3-37.8
		c0.7,0.1,1.5,0.1,2.3,0.1c0.8,0.1,1.6,0.1,2.3,0.1c1.9,0,5.1-0.2,7.4-0.3l-0.3,1c-1.2,0.1-2.9,0.4-4.3,0.6c-1,0.1-1.6,0.7-2,1.9
		c-2.4,8.7-8.3,32.3-9.7,40.4c-0.3,2.1,0.3,2.4,2.7,2.6l2.7,0.3l-0.4,0.9c-2-0.1-6.3-0.3-9.5-0.3c-3.3,0-6.4,0.2-8.4,0.3l0.4-0.9
		c4.5-0.4,5.2-0.8,5.9-2.9c1.5-5.2,5.7-21,11.2-41.8H225c-12.5,19.5-23.8,37.9-28.4,45.6c-0.7,0.1-1.5,0.3-2,0.4
		c-0.3-7.9-2.3-31-3.1-45h-0.1c-5.7,17.9-10.6,32.3-12.3,39c-0.9,3.5-0.1,4.1,5.7,4.6l-0.4,0.9c-2,0-4.8-0.3-7.6-0.3
		c-2.8,0-7.4,0.3-8,0.3l0.4-0.9c1.2-0.2,2.7-0.3,3.6-0.5c1.5-0.3,2.6-1,3.5-3.2c3.1-7.8,9-24.7,14-40c0.3-1.1,0.1-1.5-1.1-1.6
		l-5-0.6L184.7,595.8z"/>
	<path class="st2" d="M242,595.8c1.5,0,5,0.2,7.4,0.2c2.1,0,3.6-0.1,4.8-0.2c0.1,4.6,2.9,28.7,3.6,37.8c7.8-12.3,22-34,24.3-37.8
		c0.7,0.1,1.5,0.1,2.3,0.1c0.8,0.1,1.6,0.1,2.3,0.1c1.9,0,5.1-0.2,7.4-0.3l-0.3,1c-1.2,0.1-2.9,0.4-4.3,0.6c-1,0.1-1.6,0.7-2,1.9
		c-2.4,8.7-8.3,32.3-9.7,40.4c-0.3,2.1,0.3,2.4,2.7,2.6l2.7,0.3l-0.4,0.9c-2-0.1-6.3-0.3-9.5-0.3c-3.3,0-6.4,0.2-8.4,0.3l0.4-0.9
		c4.5-0.4,5.2-0.8,5.9-2.9c1.5-5.2,5.7-21,11.2-41.8h-0.1c-12.5,19.5-23.8,37.9-28.4,45.6c-0.7,0.1-1.5,0.3-2,0.4
		c-0.3-7.9-2.3-31-3.1-45h-0.1c-5.7,17.9-10.6,32.3-12.3,39c-0.9,3.5-0.1,4.1,5.7,4.6l-0.4,0.9c-2,0-4.8-0.3-7.6-0.3
		c-2.8,0-7.4,0.3-8,0.3l0.4-0.9c1.2-0.2,2.7-0.3,3.6-0.5c1.5-0.3,2.6-1,3.5-3.2c3.1-7.8,9-24.7,14-40c0.3-1.1,0.1-1.5-1.1-1.6
		l-5-0.6L242,595.8z"/>
</g>
<g class="st0">
	<path class="st3" d="M41.7,480.1c0.6,13,10.9,24.5,30.4,24.5c17.4,0,29.5-8.3,29.8-21.5c0.3-9.1-3.8-17.1-24.5-23l-24.5-6.8
		C8.1,439.5,0.4,413.2,0.4,395c0-36.2,30.9-60.7,69.8-60.7c39.2,0,68.7,23.3,68.7,62.2h-43c0-13.6-9.1-23-26.2-23
		c-15,0-26.2,8.3-26.2,20.3c0,5.3,2.1,15,21.8,20.6l24.2,7.7c49.2,14.1,56.3,41.8,55.7,61.3c-0.6,40.4-37.1,59.5-73.1,59.5
		c-44.2,0-73.7-26.2-73.7-62.8H41.7z"/>
	<path class="st3" d="M256.5,402v32.4h-28.9v105.2h-40.7V434.4h-25V402h25v-52.7h40.7V402H256.5z"/>
	<path class="st3" d="M381.4,524c-8.8,13.3-29.5,18.3-40.1,18.3c-35.1,0-70.1-27.4-70.1-71.6s35.1-71.6,70.1-71.6
		c8.8,0,29.5,2.9,40.1,18.3V402h40.7v137.6h-40.7V524z M348.1,503.4c16.8,0,33.3-12.1,33.3-32.7c0-20.6-16.5-32.7-33.3-32.7
		c-17.1,0-34.5,13-34.5,32.7C313.6,490.4,331,503.4,348.1,503.4z"/>
	<path class="st3" d="M500.8,539.6h-41V402h41v33.3c7.1-25.6,24.8-36.2,38.9-36.2c9.7,0,17.1,1.8,23.6,5l-7.4,36.8
		c-7.4-3.5-14.4-4.1-20.9-4.1c-23.6,0-34.2,18.6-34.2,54.8V539.6z"/>
	<path class="st3" d="M666.9,402v32.4h-28.9v105.2h-40.7V434.4h-25V402h25v-52.7h40.7V402H666.9z"/>
	<path class="st3" d="M816.3,514.6c-13.8,20.6-39.5,28-62.8,28c-39.5,0-71.9-28.9-71.9-72.2c0-43.3,32.4-71.3,71.9-71.3
		c39.2,0,70.4,29.2,70.4,72.5c0,3.5-0.3,9.1-0.6,12.7H722.6c2.1,15.9,19.4,23,33.9,23c11.2,0,23.3-4.1,30.1-13L816.3,514.6z
		 M782.7,458.6c-2.1-16.8-17.4-23.6-28.9-23.6c-11.5,0-27.1,6.2-30.6,23.6H782.7z"/>
	<path class="st3" d="M892.9,539.6h-41V402h41v33.3c7.1-25.6,24.8-36.2,38.9-36.2c9.7,0,17.1,1.8,23.6,5l-7.4,36.8
		c-7.4-3.5-14.4-4.1-20.9-4.1c-23.6,0-34.2,18.6-34.2,54.8V539.6z"/>
</g>
</svg>
