<?xml version="1.0" encoding="utf-8"?>
<!-- Generator: Adobe Illustrator 19.0.1, SVG Export Plug-In . SVG Version: 6.00 Build 0)  -->
<svg version="1.1" id="Layer_1" xmlns="http://www.w3.org/2000/svg" xmlns:xlink="http://www.w3.org/1999/xlink" x="0px" y="0px"
	 viewBox="-314 309 371 383" style="enable-background:new -314 309 371 383;" xml:space="preserve">
<style type="text/css">
	.st0{enable-background:new    ;}
	.st1{fill:#FF6669;}
	.st2{fill:#52CCCA;}
</style>
<g class="st0">
	<path class="st1" d="M-116.9,670.1c0,6.7-7,12.2-13.8,12.2c-6.8,0-13.4-5.5-13.4-12.2v-33.9c-38.9-4.8-64.9-28.3-74.8-59
		c-0.8-2.8-1.1-5.5-1.1-7.9c0-11,8.7-16.9,18.1-16.9c7.9,0,14.2,5.5,16.6,12.9c5.5,20.1,27.6,37.8,57.1,37.8
		c35.8,0,54.7-21.6,54.7-43.7c0.4-26.7-22.8-38.5-46-44.4l-35-8.7c-57.5-14.2-66.1-47.6-66.1-70.8c0-41.7,35-71.3,76.8-75.5v-29.1
		c0-6.7,6.7-12.2,13.4-12.2c6.8,0,13.4,5.5,13.4,12.2v29.5c35,4.8,59.8,25.6,68.5,56.2c0.8,2.8,1.1,5.9,1.1,9
		c0,8.7-4.3,16.6-18.1,16.6c-6.7,0-14.2-2.8-16.9-12.6c-6.7-25.2-26-35.4-50.8-35.4c-26.4,0-50.8,16.2-50.8,40.9
		c0,11.8,4.3,29.5,38.5,37.8l35.4,8.7C-63.8,493-37.1,519-37.1,556c0,40.9-28.7,76.3-79.9,81L-116.9,670.1L-116.9,670.1z"/>
</g>
<g class="st0">
	<path class="st2" d="M38.9,532.3c6.5,1.7,10,10,8.2,16.5c-1.7,6.5-8.8,11.5-15.2,9.8l-32.7-8.8c-14.6,36.4-44.1,55.4-76.4,57
		c-2.9,0-5.6-0.3-7.9-0.9c-10.7-2.9-14.1-12.7-11.7-21.9c2-7.6,8.9-12.3,16.8-12.6c20.8-0.1,43.6-16.8,51.3-45.4
		c9.2-34.6-6.8-58.4-28.1-64.1c-25.8-7.3-43.2,12.1-54.9,32.9l-17.4,31.6c-28.5,51.8-63.1,51.6-85.5,45.6
		c-40.2-10.7-59.7-52.2-53.1-93.7l-28.2-7.5c-6.5-1.7-10.1-9.6-8.3-16.1c1.7-6.5,8.8-11.5,15.2-9.8l28.5,7.6
		c13.6-32.6,40.1-51.2,72.1-51.6c2.9,0,6,0.4,9,1.2c8.4,2.3,14.8,8.5,11.3,21.8c-1.7,6.5-6.4,12.9-16.6,13.1
		c-26.1-0.1-40.9,15.9-47.4,39.9c-6.8,25.5,2.5,53.2,26.4,59.6c11.4,3,29.6,3.4,46.4-27.5l17.5-32c23-41.9,55.1-61,90.8-51.5
		c39.5,10.6,66.3,47.5,57.6,98.2L38.9,532.3z"/>
</g>
</svg>
